#!OML:ASF I:\Actors\actors\Patient Classification 2\Patient 1\Session 1\actor1.ASF
:FULLY-SPECIFIED
:DEGREES
372
root -0.646472 18.5558 6.31819 -1.3182 -3.03028 -4.8281
lowerback 11.8129 1.21529 0.474994
upperback -4.91477 1.6934 -0.20964
thorax -11.9973 0.755057 -0.868361
lowerneck -15.6926 -3.56202 1.80312
upperneck -17.5389 -4.81461 1.1844
head -3.12502 -2.49434 -0.00761875
rclavicle -4.96962e-016 1.59028e-015
rhumerus 29.6105 -15.7747 -27.4919
rradius 135.609
rwrist -32.6434
rhand -12.0954 -40.2635
rfingers 7.12502
rthumb 13.965 -69.7745
lclavicle -4.96962e-016 1.59028e-015
lhumerus -54.8465 -0.143678 78.7576
lradius 58.7739
lwrist 4.34245
lhand -11.5779 -23.7773
lfingers 7.12502
lthumb 14.4638 5.69861
rfemur 0 0 0
rtibia 0
rfoot 0 0
rtoes 0
lfemur -1.84612 -2.51175 -9.62882
ltibia 26.089
lfoot -24.7204 10.5198
ltoes -56.776
373
root -0.615259 18.5606 6.28434 -1.08198 -3.61411 -4.75558
lowerback 11.6788 1.36116 0.650419
upperback -4.70263 1.91802 -0.197647
thorax -11.6665 0.852804 -0.994748
lowerneck -15.4085 -3.5937 1.92739
upperneck -16.9518 -4.87393 1.22554
head -2.96237 -2.53104 -0.0191746
rclavicle -4.47266e-015 1.59028e-015
rhumerus 29.2198 -14.8312 -27.509
rradius 135.582
rwrist -33.687
rhand -11.5457 -41.0113
rfingers 7.12502
rthumb 14.4948 -70.485
lclavicle -4.47266e-015 1.59028e-015
lhumerus -54.735 0.0446644 78.9156
lradius 58.8176
lwrist 4.35186
lhand -11.5855 -23.7726
lfingers 7.12502
lthumb 14.4564 5.70388
rfemur 0 0 0
rtibia 0
rfoot 0 0
rtoes 0
lfemur -2.18256 -2.42914 -9.90684
ltibia 26.2407
lfoot -24.863 11.0121
ltoes -56.7098
374
root -0.635285 18.5568 6.28004 -1.22238 -3.20482 -4.74404
lowerback 11.4044 1.21361 0.255224
upperback -4.34185 1.66631 -0.0572415
thorax -11.1152 0.774222 -0.55248
lowerneck -14.6469 -3.56248 1.92627
upperneck -16.4977 -4.80892 1.43142
head -2.9151 -2.50363 0.0567637
rclavicle 3.3197e-014 1.98785e-014
rhumerus 28.6609 -13.709 -27.6441
rradius 135.666
rwrist -35.3328
rhand -10.8709 -42.2071
rfingers 7.12502
rthumb 15.1448 -71.6329
lclavicle 3.3197e-014 1.98785e-014
lhumerus -54.7102 0.189491 78.9699
lradius 58.787
lwrist 4.26599
lhand -11.6683 -23.8905
lfingers 7.12502
lthumb 14.3766 5.59167
rfemur 0 0 0
rtibia 0
rfoot 0 0
rtoes 0
lfemur -2.19607 -2.37905 -9.75393
ltibia 26.3737
lfoot -24.7076 10.6083
ltoes -56.8684
375
root -0.637902 18.5558 6.26899 -1.23544 -3.15912 -4.76309
lowerback 11.0689 1.19331 0.0981662
upperback -3.99418 1.62352 0.0603772
thorax -10.535 0.773766 -0.314633
lowerneck -13.2443 -3.404 1.6572
upperneck -16.5003 -4.51485 1.77754
head -3.12352 -2.35703 0.244904
rclavicle 1.43125e-014 -1.35174e-014
rhumerus 28.0846 -12.4438 -27.6735
rradius 135.618
rwrist -36.6134
rhand -10.5922 -42.8325
rfingers 7.12502
rthumb 15.4134 -72.2379
lclavicle 1.43125e-014 -1.35174e-014
lhumerus -54.6248 0.228849 79.1456
lradius 58.7836
lwrist 4.24004
lhand -11.7546 -23.9183
lfingers 7.12502
lthumb 14.2934 5.56974
rfemur 0 0 0
rtibia 0
rfoot 0 0
rtoes 0
lfemur -2.29252 -2.31688 -9.69829
ltibia 26.499
lfoot -24.6556 10.5412
ltoes -56.9175
376
root -0.632149 18.5556 6.25505 -1.2036 -3.27987 -4.81527
lowerback 10.6769 1.23248 0.058878
upperback -3.60738 1.6798 0.192518
thorax -9.87978 0.812122 -0.146597
lowerneck -10.2471 -2.81401 1.23961
upperneck -17.6848 -3.63758 1.77108
head -4.05199 -1.92115 0.391921
rclavicle -2.49972e-014 0
rhumerus 27.4218 -11.1531 -27.629
rradius 135.601
rwrist -37.5463
rhand -10.3221 -43.3394
rfingers 7.12502
rthumb 15.6734 -72.7246
lclavicle -2.49972e-014 0
lhumerus -54.4187 0.189845 79.4417
lradius 58.7611
lwrist 4.33516
lhand -11.7887 -23.7834
lfingers 7.12502
lthumb 14.2606 5.70697
rfemur 0 0 0
rtibia 0
rfoot 0 0
rtoes 0
lfemur -2.3988 -2.18593 -9.65096
ltibia 26.5869
lfoot -24.6207 10.5673
ltoes -56.9411
377
root -0.62731 18.5544 6.24068 -1.21488 -3.347 -4.80958
lowerback 10.3631 1.26373 -0.0314408
upperback -3.25639 1.71434 0.285888
thorax -9.31574 0.839979 0.00996878
lowerneck -8.8263 -2.65313 1.28316
upperneck -17.5145 -3.42333 1.6533
head -4.24525 -1.81963 0.365732
rclavicle -8.94531e-016 0
rhumerus 26.4336 -9.73127 -27.7183
rradius 135.808
rwrist -38.7006
rhand -9.66497 -44.3479
rfingers 7.12502
rthumb 16.3062 -73.6823
lclavicle -8.94531e-016 0
lhumerus -54.2129 0.0283414 79.7349
lradius 58.6197
lwrist 4.42489
lhand -11.8319 -23.6366
lfingers 7.12502
lthumb 14.219 5.85666
rfemur 0 0 0
rtibia 0
rfoot 0 0
rtoes 0
lfemur -2.49471 -2.07086 -9.65941
ltibia 26.7038
lfoot -24.5698 10.6013
ltoes -56.9858
378
root -0.624415 18.5534 6.22739 -1.22803 -3.3768 -4.78489
lowerback 10.0396 1.28338 -0.158896
upperback -2.9485 1.72832 0.373209
thorax -8.7979 0.858342 0.183925
lowerneck -8.79085 -2.86015 1.572
upperneck -16.2092 -3.72934 1.6804
head -3.77655 -1.98105 0.308406
rclavicle 2.70596e-014 4.77083e-015
rhumerus 25.4547 -8.10999 -28.0004
rradius 135.96
rwrist -40.0591
rhand -8.72007 -45.4799
rfingers 7.12502
rthumb 17.2159 -74.7372
lclavicle 2.70596e-014 4.77083e-015
lhumerus -54.071 -0.139135 80.0189
lradius 58.4087
lwrist 4.42906
lhand -11.7421 -23.6381
lfingers 7.12502
lthumb 14.3055 5.84906
rfemur 0 0 0
rtibia 0
rfoot 0 0
rtoes 0
lfemur -2.59878 -1.95082 -9.67506
ltibia 26.8275
lfoot -24.5127 10.5855
ltoes -56.9946
379
root -0.621017 18.5518 6.21665 -1.26101 -3.42808 -4.81272
lowerback 9.67999 1.30108 -0.24802
upperback -2.61758 1.74922 0.511367
thorax -8.23816 0.878182 0.389594
lowerneck -10.064 -3.45293 1.66772
upperneck -14.2055 -4.51389 2.38022
head -2.83148 -2.37034 0.46079
rclavicle 4.22417e-015 1.03368e-014
rhumerus 24.7264 -6.37387 -28.3497
rradius 135.932
rwrist -41.5878
rhand -7.85853 -46.8069
rfingers 7.12502
rthumb 18.045 -75.9898
lclavicle 4.22417e-015 1.03368e-014
lhumerus -53.8996 -0.160697 80.3118
lradius 58.1901
lwrist 4.30115
lhand -11.4914 -23.656
lfingers 7.12502
lthumb 14.5471 5.81398
rfemur 0 0 0
rtibia 0
rfoot 0 0
rtoes 0
lfemur -2.6524 -1.82405 -9.63462
ltibia 26.9474
lfoot -24.5139 10.5047
ltoes -56.9562
380
root -0.616688 18.5477 6.20554 -1.3795 -3.50131 -4.86228
lowerback 9.439 1.32619 -0.304031
upperback -2.29119 1.78425 0.65356
thorax -7.75476 0.901811 0.575155
lowerneck -8.93629 -3.48403 1.45267
upperneck -13.704 -4.51307 2.582
head -2.83922 -2.3666 0.575369
rclavicle 1.08835e-014 -1.35174e-014
rhumerus 23.934 -4.65878 -28.7221
rradius 135.904
rwrist -43.3321
rhand -7.21776 -48.0486
rfingers 7.12502
rthumb 18.6614 -77.1735
lclavicle 1.08835e-014 -1.35174e-014
lhumerus -53.7206 -0.153575 80.5743
lradius 57.9511
lwrist 4.08945
lhand -11.3358 -23.5958
lfingers 7.12502
lthumb 14.697 5.86321
rfemur 0 0 0
rtibia 0
rfoot 0 0
rtoes 0
lfemur -2.59779 -1.75497 -9.58721
ltibia 27.065
lfoot -24.5565 10.475
ltoes -56.9356
381
root -0.61192 18.5422 6.19402 -1.54323 -3.58661 -4.92171
lowerback 9.30257 1.34354 -0.340319
upperback -2.06252 1.80999 0.77436
thorax -7.43708 0.918682 0.724631
lowerneck -7.88842 -3.51778 1.3916
upperneck -12.9404 -4.53651 2.76486
head -2.75085 -2.37883 0.651842
rclavicle 3.77691e-015 -1.15295e-014
rhumerus 22.9203 -3.00411 -29.1825
rradius 135.96
rwrist -45.357
rhand -6.62172 -49.1242
rfingers 7.12502
rthumb 19.2346 -78.193
lclavicle 3.77691e-015 -1.15295e-014
lhumerus -53.7236 -0.242702 80.7848
lradius 57.6994
lwrist 3.95181
lhand -11.3795 -23.5553
lfingers 7.12502
lthumb 14.6549 5.90686
rfemur 0 0 0
rtibia 0
rfoot 0 0
rtoes 0
lfemur -2.4857 -1.80579 -9.55572
ltibia 27.1804
lfoot -24.6449 10.533
ltoes -56.8296
382
root -0.606605 18.538 6.18454 -1.70186 -3.69439 -4.98352
lowerback 9.23 1.35317 -0.37463
upperback -1.95168 1.8261 0.890994
thorax -7.28253 0.930572 0.867082
lowerneck -6.93996 -3.5617 1.40506
upperneck -11.9519 -4.5842 2.96391
head -2.57388 -2.40321 0.714462
rclavicle 1.11816e-014 -1.19271e-014
rhumerus 21.8071 -1.29942 -29.781
rradius 136.001
rwrist -47.5647
rhand -6.04671 -50.1865
rfingers 7.12502
rthumb 19.7874 -79.1993
lclavicle 1.11816e-014 -1.19271e-014
lhumerus -53.8805 -0.320812 80.9405
lradius 57.4156
lwrist 3.84289
lhand -11.4284 -23.4921
lfingers 7.12502
lthumb 14.6078 5.97347
rfemur 0 0 0
rtibia 0
rfoot 0 0
rtoes 0
lfemur -2.36574 -1.82652 -9.52355
ltibia 27.2861
lfoot -24.7186 10.5638
ltoes -56.7187
383
root -0.601321 18.5353 6.17794 -1.83973 -3.79884 -5.05371
lowerback 9.18294 1.38611 -0.369308
upperback -1.90947 1.87719 0.988606
thorax -7.21493 0.957536 0.960412
lowerneck -6.00119 -3.60371 1.30722
upperneck -10.9763 -4.61331 3.33867
head -2.39719 -2.41708 0.851026
rclavicle -1.28589e-014 1.82882e-014
rhumerus 20.5877 0.314582 -30.4805
rradius 135.935
rwrist -49.7273
rhand -5.5894 -51.204
rfingers 7.12502
rthumb 20.227 -80.1708
lclavicle -1.28589e-014 1.82882e-014
lhumerus -54.0315 -0.370249 81.0308
lradius 57.0837
lwrist 3.63414
lhand -11.3533 -23.4753
lfingers 7.12502
lthumb 14.6802 5.98498
rfemur 0 0 0
rtibia 0
rfoot 0 0
rtoes 0
lfemur -2.25335 -1.69699 -9.45189
ltibia 27.3629
lfoot -24.7188 10.506
ltoes -56.7265
384
root -0.59448 18.5335 6.1732 -1.92637 -3.84589 -5.10889
lowerback 9.07962 1.444 -0.330451
upperback -1.8993 1.96494 1.0759
thorax -7.14873 1.00094 1.01942
lowerneck -5.23718 -3.62726 1.20867
upperneck -9.91103 -4.63297 3.66033
head -2.16601 -2.42186 0.96451
rclavicle 2.00648e-014 -2.78299e-015
rhumerus 19.2542 1.61661 -31.1533
rradius 135.721
rwrist -51.5995
rhand -5.434 -52.242
rfingers 7.12502
rthumb 20.3764 -81.193
lclavicle 2.00648e-014 -2.78299e-015
lhumerus -54.0381 -0.415079 81.118
lradius 56.6742
lwrist 3.39047
lhand -11.063 -23.4692
lfingers 7.12502
lthumb 14.9598 5.97047
rfemur 0 0 0
rtibia 0
rfoot 0 0
rtoes 0
lfemur -2.18651 -1.57739 -9.39399
ltibia 27.4017
lfoot -24.705 10.4138
ltoes -56.7414
385
root -0.586641 18.5343 6.17099 -1.97278 -3.84236 -5.10633
lowerback 8.8974 1.49332 -0.35317
upperback -1.89857 2.0345 1.17272
thorax -7.04968 1.03837 1.12779
lowerneck -4.69646 -3.61735 1.14628
upperneck -8.75065 -4.63174 3.8281
head -1.87438 -2.41036 1.01595
rclavicle -2.91095e-014 1.59028e-015
rhumerus 18.0248 2.64578 -31.7337
rradius 135.242
rwrist -52.9733
rhand -5.29289 -53.1347
rfingers 7.12502
rthumb 20.512 -82.0711
lclavicle -2.91095e-014 1.59028e-015
lhumerus -53.8145 -0.302135 81.1886
lradius 56.0707
lwrist 3.14356
lhand -10.6889 -23.3738
lfingers 7.12502
lthumb 15.3202 6.0387
rfemur 0 0 0
rtibia 0
rfoot 0 0
rtoes 0
lfemur -2.14712 -1.59833 -9.42847
ltibia 27.4062
lfoot -24.7173 10.4043
ltoes -56.7377
386
root -0.579014 18.5362 6.17245 -2.028 -3.81807 -5.11574
lowerback 8.53772 1.51175 -0.429338
upperback -1.79278 2.0574 1.30719
thorax -6.73987 1.0553 1.31833
lowerneck -4.43703 -3.56979 1.07732
upperneck -7.58624 -4.59105 3.98076
head -1.53949 -2.37525 1.05726
rclavicle -1.87479e-014 -2.26615e-014
rhumerus 17.0763 3.3802 -32.2723
rradius 134.489
rwrist -53.9684
rhand -4.95629 -53.7298
rfingers 7.12502
rthumb 20.8354 -82.631
lclavicle -1.87479e-014 -2.26615e-014
lhumerus -53.576 0.00734122 81.1874
lradius 55.6261
lwrist 2.87945
lhand -10.5118 -23.2615
lfingers 7.12502
lthumb 15.4908 6.13792
rfemur 0 0 0
rtibia 0
rfoot 0 0
rtoes 0
lfemur -2.06739 -1.65567 -9.45377
ltibia 27.3732
lfoot -24.6834 10.4865
ltoes -56.8218
